HIERARCHY
ROOT Hips
{
	OFFSET 0.00000 0.00000 0.00000
	CHANNELS 6 Xposition Yposition Zposition Zrotation Yrotation Xrotation 
	JOINT LHipJoint
	{
		OFFSET 0 0 0
		CHANNELS 3 Zrotation Yrotation Xrotation
		JOINT LeftHip
		{
			OFFSET 1.75344 -1.53157 0.77399
			CHANNELS 3 Zrotation Yrotation Xrotation
			JOINT LeftKnee
			{
				OFFSET 2.25415 -6.19323 0.00000
				CHANNELS 3 Zrotation Yrotation Xrotation
				JOINT LeftAnkle
				{
					OFFSET 2.30342 -6.32861 0.00000
					CHANNELS 3 Zrotation Yrotation Xrotation
					JOINT LeftToe
					{
						OFFSET 0.10958 -0.30108 1.49206
						CHANNELS 3 Zrotation Yrotation Xrotation
						End Site
						{
							OFFSET 0.00000 -0.00000 0.77783
						}
					}
				}
			}
		}
	}
	JOINT RHipJoint
	{
		OFFSET 0 0 0
		CHANNELS 3 Zrotation Yrotation Xrotation
		JOINT RightHip
		{
			OFFSET -1.81912 -1.53156 0.77399
			CHANNELS 3 Zrotation Yrotation Xrotation
			JOINT RightKnee
			{
				OFFSET -2.22882 -6.12365 0.00000
				CHANNELS 3 Zrotation Yrotation Xrotation
				JOINT RightAnkle
				{
					OFFSET -2.21943 -6.09785 0.00000
					CHANNELS 3 Zrotation Yrotation Xrotation
					JOINT RightToe
					{
						OFFSET -0.18931 -0.52012 1.59379
						CHANNELS 3 Zrotation Yrotation Xrotation
						End Site
						{
							OFFSET -0.00000 -0.00000 0.84686
						}
					}
				}
			}
		}
	}
	JOINT lowerback
	{
		OFFSET 0 0 0
		CHANNELS 3 Zrotation Yrotation Xrotation
		JOINT Chest
		{
			OFFSET -0.00200 1.66634 -0.14248
			CHANNELS 3 Zrotation Yrotation Xrotation
			JOINT Chest2
			{
				OFFSET -0.00875 1.64542 0.09514
				CHANNELS 3 Zrotation Yrotation Xrotation
				JOINT lowerneck
				{
					OFFSET 0 0 0
					CHANNELS 3 Zrotation Yrotation Xrotation
					JOINT Neck
					{
						OFFSET 0.02257 1.59605 0.00839
						CHANNELS 3 Zrotation Yrotation Xrotation
						JOINT Head
						{
							OFFSET -0.10214 1.57530 -0.23335
							CHANNELS 3 Zrotation Yrotation Xrotation
							End Site
							{
								OFFSET -0.03588 1.60717 -0.08062
							}
						}
					}
				}
				JOINT LeftCollar
				{
					OFFSET 0 0 0
					CHANNELS 3 Zrotation Yrotation Xrotation
					JOINT LeftShoulder
					{
						OFFSET 2.54983 1.10186 0.40078
CHANNELS 3 Zrotation Xrotation Yrotation
						JOINT LeftElbow
						{
OFFSET 0 -4.288400 0.000000
CHANNELS 3 Zrotation Xrotation Yrotation
							JOINT LeftWrist
							{
OFFSET 0 -3.065520 -0.000000
CHANNELS 3 Zrotation Xrotation Yrotation
								JOINT lhand
								{
									OFFSET 0 0 0
CHANNELS 3 Zrotation Xrotation Yrotation
									JOINT LFingers
									{
OFFSET 0 -0.753040 0.000000
CHANNELS 3 Zrotation Xrotation Yrotation
										End Site
										{
OFFSET 0 -0.607120 0.000000
										}
									}
								}
								JOINT LThumb
								{
OFFSET 0 0.000000 0.000000
CHANNELS 3 Zrotation Xrotation Yrotation
									End Site
									{
OFFSET 0 -0.616390 0.616390
									}
								}
							}
						}
					}
				}
				JOINT RightCollar
				{
					OFFSET 0 0 0
					CHANNELS 3 Zrotation Yrotation Xrotation
					JOINT RightShoulder
					{
						OFFSET -2.60909 1.35448 0.21802
CHANNELS 3 Zrotation Xrotation Yrotation
						JOINT RightElbow
						{
OFFSET 0 -4.521720 -0.000000
CHANNELS 3 Zrotation Xrotation Yrotation
							JOINT RightWrist
							{
OFFSET 0 -2.891400 0.000000
CHANNELS 3 Zrotation Xrotation Yrotation
								JOINT rhand
								{
									OFFSET 0 0 0
CHANNELS 3 Zrotation Xrotation Yrotation
									JOINT RFingers
									{
OFFSET 0 -0.680540 0.000000
CHANNELS 3 Zrotation Xrotation Yrotation
										End Site
										{
OFFSET 0 -0.548670 0.000000
										}
									}
								}
								JOINT RThumb
								{
OFFSET 0 0.000000 0.000000
CHANNELS 3 Zrotation Xrotation Yrotation
									End Site
									{
OFFSET 0 -0.557050 0.557050
									}
								}
							}
						}
					}
				}
			}
		}
	}
}
MOTION
Frames: 10
Frame Time: 0.008333333333333333
7.553662 15.322993 -36.723110 -176.885634 -25.633369 180.974093 0.000000 0.000000 0.000000 -27.085694 -18.281157 -2.954467 2.732110 10.247981 29.783868 2.057088 7.983309 -30.911594 0.283975 3.427152 9.470455 0.000000 0.000000 0.000000 20.803504 4.043514 -7.016061 -3.960033 -12.104233 36.105625 -0.010841 -24.265401 -34.198278 -0.345884 -3.755222 10.391547 2.142962 3.196859 4.921157 -1.107341 4.242679 -6.005450 -2.881107 1.817383 -8.854226 0.615503 3.588082 -14.487012 -2.169959 5.013691 18.481105 -0.272726 2.087808 8.194711 0.000000 0.000000 0.000000 11.694082 15.528504 -38.680432 12.517143 -20.575635 2.280785 -1.662395 34.550934 37.764324 0.000000 0.000000 0.000000 -7.125000 0.000000 0.000000 -18.732622 -6.065480 -21.746366 0.000000 0.000000 0.000000 -15.956987 -6.497956 41.246333 -11.724187 -19.389708 -2.009762 -20.195200 40.484270 52.335816 0.000000 0.000000 0.000000 7.125000 0.000000 0.000000 60.649647 78.774499 -50.259419
7.441808 15.332770 -36.782142 -178.518397 -31.537624 181.597492 0.000000 0.000000 0.000000 -29.302362 -20.435221 -0.534332 2.344043 9.548588 27.526962 1.759031 6.630681 -28.183101 0.312968 3.591058 9.929397 0.000000 0.000000 0.000000 18.687037 2.099672 -11.439201 -5.843975 -14.273864 44.349299 0.682099 -23.777193 -28.872323 -1.292418 -7.202415 20.316672 1.083244 4.294724 5.415483 -1.183495 5.660859 -5.574907 -2.563036 2.601215 -8.684554 2.814507 4.778749 -14.035929 -3.641286 6.478884 18.260122 -0.960804 2.804074 8.191790 0.000000 0.000000 0.000000 13.283401 23.188370 -36.358450 12.332752 -20.301717 2.216446 -1.241507 34.473479 39.225394 0.000000 0.000000 0.000000 -7.125000 0.000000 0.000000 -18.565348 -7.486561 -21.934741 0.000000 0.000000 0.000000 -12.656368 -2.182284 49.521757 -12.259100 -20.192093 -2.190924 -18.121311 39.073427 50.041348 0.000000 0.000000 0.000000 7.125000 0.000000 0.000000 51.881061 76.975001 -40.776627
7.391754 15.341934 -36.879081 -178.645641 -38.142086 182.102998 0.000000 0.000000 0.000000 -28.965914 -21.721711 -0.317732 2.232801 9.334961 26.848778 1.667477 2.487796 -25.399892 0.101371 1.995405 5.494948 0.000000 0.000000 0.000000 18.738338 3.119035 -14.298872 -7.062643 -15.384116 49.110323 0.472511 -18.592612 -21.921888 -0.052690 -1.314987 3.618834 0.808899 5.405506 5.341440 -0.735559 7.185830 -5.286772 -2.102924 3.400631 -8.355286 3.742120 5.745938 -13.558557 -4.079507 7.730226 18.359357 -1.118332 3.429121 8.240093 0.000000 0.000000 0.000000 17.789421 28.548005 -35.663348 12.540592 -20.610377 2.289037 -1.796139 33.934509 37.910909 0.000000 0.000000 0.000000 -7.125000 0.000000 0.000000 -18.803173 -6.194319 -21.875759 0.000000 0.000000 0.000000 -9.283319 -1.161704 56.167130 -12.581105 -20.670346 -2.303372 -18.400334 35.958745 49.713066 0.000000 0.000000 0.000000 7.125000 0.000000 0.000000 50.414565 76.924393 -39.473321
7.339928 15.329236 -36.967010 -179.612978 -46.778488 183.328336 0.000000 0.000000 0.000000 -29.244515 -24.638960 -0.686920 2.368116 9.593877 27.671482 1.449924 -2.521734 -22.092578 0.079661 1.780670 4.900914 0.000000 0.000000 0.000000 18.847929 4.448263 -16.643756 -7.548305 -15.776763 50.918874 -0.045345 -15.037293 -21.818004 -0.320331 3.638029 -10.060546 1.113242 5.737954 5.480701 -0.783512 7.672989 -5.163825 -2.381214 3.629138 -8.241033 4.337567 6.770524 -13.341718 -4.304925 9.101075 18.545292 -1.126506 4.104068 8.362673 0.000000 0.000000 0.000000 24.235696 31.566777 -35.446700 12.963340 -21.230637 2.442009 -3.906066 35.102198 39.202671 0.000000 0.000000 0.000000 -7.125000 0.000000 0.000000 -19.882770 -7.276269 -23.613453 0.000000 0.000000 0.000000 -7.136876 -2.451793 62.867161 -13.493583 -22.005946 -2.635441 -17.502292 32.396958 50.152147 0.000000 0.000000 0.000000 7.125000 0.000000 0.000000 52.778873 76.785433 -41.362465
7.279683 15.301324 -37.074994 -179.897509 -55.862028 183.519851 0.000000 0.000000 0.000000 -29.384363 -28.047935 -0.223976 2.640778 10.089452 29.266878 1.200617 -7.282589 -19.579389 0.061003 1.585574 4.361749 0.000000 0.000000 0.000000 19.640002 7.610034 -16.584983 -7.106682 -15.420710 49.275968 -0.524083 -14.101679 -25.059904 -0.653523 5.169388 -14.392583 2.321770 6.156261 6.349470 -0.745817 8.389252 -5.280361 -3.191161 3.894887 -8.681074 5.347774 7.530051 -12.429697 -4.695065 10.078585 18.831772 -1.322383 4.613599 8.417629 0.000000 0.000000 0.000000 30.366474 32.411447 -35.155997 13.610041 -22.172321 2.680555 -2.688285 31.879746 37.734167 0.000000 0.000000 0.000000 -7.125000 0.000000 0.000000 -19.252027 -5.963715 -22.385145 0.000000 0.000000 0.000000 -6.190740 -4.200938 65.103957 -14.395659 -23.297443 -2.982834 -12.498030 27.844562 48.129477 0.000000 0.000000 0.000000 7.125000 0.000000 0.000000 50.005751 73.779343 -36.201590
7.237697 15.317430 -37.203164 -181.538247 -65.524400 185.346407 0.000000 0.000000 0.000000 -29.107348 -30.003385 -0.778889 2.726352 10.238271 29.751781 0.440412 -14.093509 -14.464466 0.522158 4.614073 12.814111 0.000000 0.000000 0.000000 19.233569 13.764495 -15.502651 -6.053613 -14.479098 45.194622 -1.243250 -10.821408 -27.505445 -0.620210 5.026373 -13.986640 2.557228 6.320675 6.688286 -0.779782 8.652497 -5.293712 -3.430207 4.004444 -8.838954 7.130209 8.556223 -11.951285 -5.280142 11.332005 19.313869 -1.645434 5.282617 8.711283 0.000000 0.000000 0.000000 33.226514 30.562789 -28.948102 13.511877 -22.032633 2.642191 -3.206410 33.309511 38.628366 0.000000 0.000000 0.000000 -7.125000 0.000000 0.000000 -19.521232 -6.776491 -22.990298 0.000000 0.000000 0.000000 -7.173854 -7.128770 65.862415 -15.011114 -24.161613 -3.230515 -10.291395 23.768372 49.589791 0.000000 0.000000 0.000000 7.125000 0.000000 0.000000 56.123514 73.728491 -41.192977
7.165414 15.329141 -37.349064 -185.700067 -75.221462 189.372950 0.000000 0.000000 0.000000 -29.266955 -30.599344 -1.428966 2.849075 10.446569 30.435423 -0.185738 -18.652312 -11.399375 0.120448 2.025316 5.584508 0.000000 0.000000 0.000000 18.366976 21.421620 -13.435532 -4.841167 -13.201560 40.129692 -1.869003 -6.114904 -28.616432 -0.483951 4.243236 -11.789893 2.701815 6.247528 7.117388 -0.644593 8.603294 -5.223241 -3.412120 3.971983 -9.017238 8.097642 9.175934 -11.600842 -5.387308 12.105167 20.150545 -1.730078 5.706564 9.060327 0.000000 0.000000 0.000000 35.133807 29.005824 -29.568489 14.168763 -22.975445 2.893658 -6.686869 30.111922 37.560117 0.000000 0.000000 0.000000 -7.125000 0.000000 0.000000 -21.236893 -5.582833 -24.901473 0.000000 0.000000 0.000000 -9.337815 -9.923920 63.170322 -14.391046 -23.290777 -2.981031 -10.506090 25.337524 48.779730 0.000000 0.000000 0.000000 7.125000 0.000000 0.000000 53.546054 73.396575 -38.714352
7.083919 15.324983 -37.494138 -203.063880 -85.169623 206.463796 0.000000 0.000000 0.000000 -29.186496 -30.228304 -1.946649 3.056101 10.785355 31.559264 -1.096512 -23.265142 -7.040384 0.986631 6.266269 17.576650 0.000000 0.000000 0.000000 18.228690 28.345443 -10.943063 -3.757317 -11.829402 35.132254 -1.855085 -3.656341 -27.253050 -2.351462 9.555988 -27.555982 3.260880 6.462948 7.030762 -0.393780 8.974114 -5.048012 -3.469242 4.144315 -8.708311 8.468366 9.256807 -11.358707 -4.588714 12.052430 21.413637 -1.518923 5.789205 9.424261 0.000000 0.000000 0.000000 35.762797 26.774006 -31.277080 14.745205 -23.789967 3.122462 -5.772572 27.028463 36.806837 0.000000 0.000000 0.000000 -7.125000 0.000000 0.000000 -20.787689 -4.913433 -24.075976 0.000000 0.000000 0.000000 -12.122665 -11.190059 55.459261 -13.043396 -21.350678 -2.469106 -14.143875 30.581357 48.929868 0.000000 0.000000 0.000000 7.125000 0.000000 0.000000 51.069702 74.842300 -38.083698
6.988367 15.376915 -37.629250 -338.746960 -83.341764 342.493554 0.000000 0.000000 0.000000 -29.132353 -29.589363 -2.436869 2.982424 10.666586 31.163560 -1.515059 -24.213599 -3.629150 1.952679 8.759674 25.051021 0.000000 0.000000 0.000000 17.870172 31.037110 -10.200207 -3.312054 -11.183821 32.902432 -1.763201 -2.014387 -25.887028 -2.570852 9.964732 -28.863358 3.549852 5.865080 6.834896 -0.100804 8.225985 -5.385056 -3.228246 3.753605 -9.019720 8.393066 9.520680 -11.004316 -4.001077 12.386713 22.253025 -1.265708 6.007494 9.632725 0.000000 0.000000 0.000000 33.987074 25.454376 -29.704161 14.766645 -23.820087 3.131082 -4.400816 27.090865 37.323257 0.000000 0.000000 0.000000 -7.125000 0.000000 0.000000 -20.098762 -5.471146 -23.351855 0.000000 0.000000 0.000000 -15.704652 -10.105101 48.855757 -12.821882 -21.025714 -2.389054 -12.734328 31.875072 49.696819 0.000000 0.000000 0.000000 7.125000 0.000000 0.000000 54.645055 74.698522 -40.932742
6.879484 15.421224 -37.781590 -350.741077 -72.619996 354.918823 0.000000 0.000000 0.000000 -28.936091 -28.527494 -3.230531 3.005791 10.704399 31.289431 -1.468172 -24.224815 -4.262072 0.584838 4.870929 13.545856 0.000000 0.000000 0.000000 18.264795 28.360726 -9.615854 -3.055881 -10.784686 31.557492 -1.664675 -1.348885 -24.908639 -1.640081 8.028999 -22.825376 3.740342 5.340039 6.101296 -0.057339 7.517064 -5.644473 -3.131656 3.400984 -8.903833 8.301184 9.568739 -10.823535 -3.246714 12.352036 22.700136 -1.000684 6.076307 9.697367 0.000000 0.000000 0.000000 31.681689 21.846760 -28.372902 13.802970 -22.452209 2.752480 -0.731799 25.413243 37.180397 0.000000 0.000000 0.000000 -7.125000 0.000000 0.000000 -18.239210 -5.589118 -20.986483 0.000000 0.000000 0.000000 -19.055016 -6.356676 44.066975 -13.041364 -21.347791 -2.468326 -12.710049 29.149179 51.852631 0.000000 0.000000 0.000000 7.125000 0.000000 0.000000 62.246757 75.613024 -48.471534
